<?xml version="1.0" standalone="no"?><svg xmlns:xlink="http://www.w3.org/1999/xlink" xmlns="http://www.w3.org/2000/svg" viewBox="0 0 1000 636.3636363636364" preserveAspectRatio="xMaxYMax slice"><g transform="scale(1.2453300124533002)"><rect x="0" y="0" width="803" height="511" fill="#f3f4f6"/><rect x="0" y="0" width="73" height="73" fill="#f3f4f6"/><g transform="translate(36.5,0) scale(1.825) rotate(0)"><path d="M5 0H10L5 5L0 10V5L5 0Z" fill="#f5f3e3"/><path d="M20 15V20H15L20 15Z" fill="#f5f3e3"/><path d="M20 5V10L15 15L10 20H5L20 5Z" fill="#f5f3e3"/><path d="M15 0H20L5 15.0002L0 20.0002V15.0002L15 0Z" fill="#f5f3e3"/></g><g transform="translate(0,36.5) scale(1.825) rotate(0)"><path fill-rule="evenodd" clip-rule="evenodd" d="M10 20C15.5228 20 20 15.5228 20 10C20 4.47715 15.5228 0 10 0C4.47715 0 0 4.47715 0 10C0 15.5228 4.47715 20 10 20ZM10 17C13.866 17 17 13.866 17 10C17 6.13401 13.866 3 10 3C6.13401 3 3 6.13401 3 10C3 13.866 6.13401 17 10 17Z" fill="#f6f1d2"/></g><path d="M 36.5 36.5 A 36.5 36.5 0 0 1  73 73 L 36.5 36.5 A 36.5 36.5 0 0 0 73 73" fill="#f5f2dc"/><rect x="292" y="0" width="73" height="73" fill="#f3f4f6"/><g transform="translate(292,0) scale(1.825) rotate(0)"><path fill-rule="evenodd" clip-rule="evenodd" d="M10 20C15.5228 20 20 15.5228 20 10C20 4.47715 15.5228 0 10 0C4.47715 0 0 4.47715 0 10C0 15.5228 4.47715 20 10 20ZM10 17C13.866 17 17 13.866 17 10C17 6.13401 13.866 3 10 3C6.13401 3 3 6.13401 3 10C3 13.866 6.13401 17 10 17Z" fill="#f7f1c8"/></g><g transform="translate(292,36.5) scale(1.825) rotate(0)"><path fill-rule="evenodd" clip-rule="evenodd" d="M10 20C15.5228 20 20 15.5228 20 10C20 4.47715 15.5228 0 10 0C4.47715 0 0 4.47715 0 10C0 15.5228 4.47715 20 10 20ZM10 17C13.866 17 17 13.866 17 10C17 6.13401 13.866 3 10 3C6.13401 3 3 6.13401 3 10C3 13.866 6.13401 17 10 17Z" fill="#f7f1cd"/></g><g transform="translate(365,0) scale(3.65) rotate(0)"><path fill-rule="evenodd" clip-rule="evenodd" d="M10 20C15.5228 20 20 15.5228 20 10C20 4.47715 15.5228 0 10 0C4.47715 0 0 4.47715 0 10C0 15.5228 4.47715 20 10 20ZM10 17C13.866 17 17 13.866 17 10C17 6.13401 13.866 3 10 3C6.13401 3 3 6.13401 3 10C3 13.866 6.13401 17 10 17Z" fill="#f4f4e9"/></g><g transform="translate(438,0) scale(3.65) rotate(0)"><path d="M5 0H10L5 5L0 10V5L5 0Z" fill="#f4f4ec"/><path d="M20 15V20H15L20 15Z" fill="#f4f4ec"/><path d="M20 5V10L15 15L10 20H5L20 5Z" fill="#f4f4ec"/><path d="M15 0H20L5 15.0002L0 20.0002V15.0002L15 0Z" fill="#f4f4ec"/></g><path d="M 511 0 A 73 73 0 0 1  584 73 L 511 0 A 73 73 0 0 0 584 73" fill="#f3f4f2"/><path d="M 584 0 A 73 73 0 0 1  657 73 L 584 0 A 73 73 0 0 0 657 73" fill="#f6f2d9"/><path d="M 730 0 A 73 73 0 0 1  803 73 L 730 0 A 73 73 0 0 0 803 73" fill="#f5f2e0"/><rect x="0" y="73" width="73" height="73" fill="#f3f4f6"/><path d="M 0 109.5 A 36.5 36.5 0 0 1  36.5 146 L 0 109.5 A 36.5 36.5 0 0 0 36.5 146" fill="#f4f4e3"/><g transform="translate(73,73) scale(3.65) rotate(0)"><path d="M5 0H10L5 5L0 10V5L5 0Z" fill="#f5f5d9"/><path d="M20 15V20H15L20 15Z" fill="#f5f5d9"/><path d="M20 5V10L15 15L10 20H5L20 5Z" fill="#f5f5d9"/><path d="M15 0H20L5 15.0002L0 20.0002V15.0002L15 0Z" fill="#f5f5d9"/></g><g transform="translate(365,73) scale(3.65) rotate(0)"><path fill-rule="evenodd" clip-rule="evenodd" d="M10 20C15.5228 20 20 15.5228 20 10C20 4.47715 15.5228 0 10 0C4.47715 0 0 4.47715 0 10C0 15.5228 4.47715 20 10 20ZM10 17C13.866 17 17 13.866 17 10C17 6.13401 13.866 3 10 3C6.13401 3 3 6.13401 3 10C3 13.866 6.13401 17 10 17Z" fill="#f4f4f0"/></g><g transform="translate(511,73) scale(3.65) rotate(0)"><path fill-rule="evenodd" clip-rule="evenodd" d="M10 20C15.5228 20 20 15.5228 20 10C20 4.47715 15.5228 0 10 0C4.47715 0 0 4.47715 0 10C0 15.5228 4.47715 20 10 20ZM10 17C13.866 17 17 13.866 17 10C17 6.13401 13.866 3 10 3C6.13401 3 3 6.13401 3 10C3 13.866 6.13401 17 10 17Z" fill="#f5f5df"/></g><path d="M 584 146 A 73 73 0 0 1  657 73 L 584 146 A 73 73 0 0 0 657 73" fill="#f7f1cc"/><path d="M 0 146 A 73 73 0 0 1  73 219 L 0 146 A 73 73 0 0 0 73 219" fill="#f5f5d7"/><g transform="translate(73,146) scale(3.65) rotate(0)"><path fill-rule="evenodd" clip-rule="evenodd" d="M10 20C15.5228 20 20 15.5228 20 10C20 4.47715 15.5228 0 10 0C4.47715 0 0 4.47715 0 10C0 15.5228 4.47715 20 10 20ZM10 17C13.866 17 17 13.866 17 10C17 6.13401 13.866 3 10 3C6.13401 3 3 6.13401 3 10C3 13.866 6.13401 17 10 17Z" fill="#f4f4ed"/></g><rect x="146" y="146" width="73" height="73" fill="#f3f4f6"/><g transform="translate(146,146) scale(1.825) rotate(0)"><path fill-rule="evenodd" clip-rule="evenodd" d="M10 20C15.5228 20 20 15.5228 20 10C20 4.47715 15.5228 0 10 0C4.47715 0 0 4.47715 0 10C0 15.5228 4.47715 20 10 20ZM10 17C13.866 17 17 13.866 17 10C17 6.13401 13.866 3 10 3C6.13401 3 3 6.13401 3 10C3 13.866 6.13401 17 10 17Z" fill="#f4f4e8"/></g><g transform="translate(182.5,146) scale(1.825) rotate(0)"><path d="M5 0H10L5 5L0 10V5L5 0Z" fill="#f6f5d2"/><path d="M20 15V20H15L20 15Z" fill="#f6f5d2"/><path d="M20 5V10L15 15L10 20H5L20 5Z" fill="#f6f5d2"/><path d="M15 0H20L5 15.0002L0 20.0002V15.0002L15 0Z" fill="#f6f5d2"/></g><path d="M 182.5 219 A 36.5 36.5 0 0 1  219 182.5 L 182.5 219 A 36.5 36.5 0 0 0 219 182.5" fill="#f6f5d6"/><path d="M 219 219 A 73 73 0 0 1  292 146 L 219 219 A 73 73 0 0 0 292 146" fill="#f4f4ee"/><g transform="translate(365,146) scale(3.65) rotate(0)"><path d="M5 0H10L5 5L0 10V5L5 0Z" fill="#f5f5de"/><path d="M20 15V20H15L20 15Z" fill="#f5f5de"/><path d="M20 5V10L15 15L10 20H5L20 5Z" fill="#f5f5de"/><path d="M15 0H20L5 15.0002L0 20.0002V15.0002L15 0Z" fill="#f5f5de"/></g><path d="M 438 219 A 73 73 0 0 1  511 146 L 438 219 A 73 73 0 0 0 511 146" fill="#f5f5dd"/><path d="M 584 146 A 73 73 0 0 1  657 219 L 584 146 A 73 73 0 0 0 657 219" fill="#f6f2d9"/><path d="M 657 146 A 73 73 0 0 1  730 219 L 657 146 A 73 73 0 0 0 730 219" fill="#f5f5e0"/><g transform="translate(0,219) scale(3.65) rotate(0)"><path d="M5 0H10L5 5L0 10V5L5 0Z" fill="#f5f5e0"/><path d="M20 15V20H15L20 15Z" fill="#f5f5e0"/><path d="M20 5V10L15 15L10 20H5L20 5Z" fill="#f5f5e0"/><path d="M15 0H20L5 15.0002L0 20.0002V15.0002L15 0Z" fill="#f5f5e0"/></g><g transform="translate(146,219) scale(3.65) rotate(0)"><path fill-rule="evenodd" clip-rule="evenodd" d="M10 20C15.5228 20 20 15.5228 20 10C20 4.47715 15.5228 0 10 0C4.47715 0 0 4.47715 0 10C0 15.5228 4.47715 20 10 20ZM10 17C13.866 17 17 13.866 17 10C17 6.13401 13.866 3 10 3C6.13401 3 3 6.13401 3 10C3 13.866 6.13401 17 10 17Z" fill="#f5f5df"/></g><rect x="292" y="219" width="73" height="73" fill="#f3f4f6"/><path d="M 292 255.5 A 36.5 36.5 0 0 1  328.5 219 L 292 255.5 A 36.5 36.5 0 0 0 328.5 219" fill="#f6f1d2"/><g transform="translate(328.5,219) scale(1.825) rotate(0)"><path d="M5 0H10L5 5L0 10V5L5 0Z" fill="#f5f5dc"/><path d="M20 15V20H15L20 15Z" fill="#f5f5dc"/><path d="M20 5V10L15 15L10 20H5L20 5Z" fill="#f5f5dc"/><path d="M15 0H20L5 15.0002L0 20.0002V15.0002L15 0Z" fill="#f5f5dc"/></g><g transform="translate(292,255.5) scale(1.825) rotate(0)"><path d="M5 0H10L5 5L0 10V5L5 0Z" fill="#f3f4f6"/><path d="M20 15V20H15L20 15Z" fill="#f3f4f6"/><path d="M20 5V10L15 15L10 20H5L20 5Z" fill="#f3f4f6"/><path d="M15 0H20L5 15.0002L0 20.0002V15.0002L15 0Z" fill="#f3f4f6"/></g><path d="M 328.5 292 A 36.5 36.5 0 0 1  365 255.5 L 328.5 292 A 36.5 36.5 0 0 0 365 255.5" fill="#f6f5d5"/><path d="M 365 219 A 73 73 0 0 1  438 292 L 365 219 A 73 73 0 0 0 438 292" fill="#f5f5d9"/><g transform="translate(438,219) scale(3.65) rotate(0)"><path d="M5 0H10L5 5L0 10V5L5 0Z" fill="#f6f2d6"/><path d="M20 15V20H15L20 15Z" fill="#f6f2d6"/><path d="M20 5V10L15 15L10 20H5L20 5Z" fill="#f6f2d6"/><path d="M15 0H20L5 15.0002L0 20.0002V15.0002L15 0Z" fill="#f6f2d6"/></g><g transform="translate(511,219) scale(3.65) rotate(0)"><path fill-rule="evenodd" clip-rule="evenodd" d="M10 20C15.5228 20 20 15.5228 20 10C20 4.47715 15.5228 0 10 0C4.47715 0 0 4.47715 0 10C0 15.5228 4.47715 20 10 20ZM10 17C13.866 17 17 13.866 17 10C17 6.13401 13.866 3 10 3C6.13401 3 3 6.13401 3 10C3 13.866 6.13401 17 10 17Z" fill="#f8f0c3"/></g><path d="M 584 219 A 73 73 0 0 1  657 292 L 584 219 A 73 73 0 0 0 657 292" fill="#f6f2d8"/><g transform="translate(0,292) scale(3.65) rotate(0)"><path d="M5 0H10L5 5L0 10V5L5 0Z" fill="#f4f4e9"/><path d="M20 15V20H15L20 15Z" fill="#f4f4e9"/><path d="M20 5V10L15 15L10 20H5L20 5Z" fill="#f4f4e9"/><path d="M15 0H20L5 15.0002L0 20.0002V15.0002L15 0Z" fill="#f4f4e9"/></g><g transform="translate(146,292) scale(3.65) rotate(0)"><path d="M5 0H10L5 5L0 10V5L5 0Z" fill="#f5f5e2"/><path d="M20 15V20H15L20 15Z" fill="#f5f5e2"/><path d="M20 5V10L15 15L10 20H5L20 5Z" fill="#f5f5e2"/><path d="M15 0H20L5 15.0002L0 20.0002V15.0002L15 0Z" fill="#f5f5e2"/></g><rect x="219" y="292" width="73" height="73" fill="#f3f4f6"/><g transform="translate(219,292) scale(1.825) rotate(0)"><path fill-rule="evenodd" clip-rule="evenodd" d="M10 20C15.5228 20 20 15.5228 20 10C20 4.47715 15.5228 0 10 0C4.47715 0 0 4.47715 0 10C0 15.5228 4.47715 20 10 20ZM10 17C13.866 17 17 13.866 17 10C17 6.13401 13.866 3 10 3C6.13401 3 3 6.13401 3 10C3 13.866 6.13401 17 10 17Z" fill="#f3f4f5"/></g><rect x="292" y="292" width="73" height="73" fill="#f3f4f6"/><g transform="translate(292,292) scale(1.825) rotate(0)"><path fill-rule="evenodd" clip-rule="evenodd" d="M10 20C15.5228 20 20 15.5228 20 10C20 4.47715 15.5228 0 10 0C4.47715 0 0 4.47715 0 10C0 15.5228 4.47715 20 10 20ZM10 17C13.866 17 17 13.866 17 10C17 6.13401 13.866 3 10 3C6.13401 3 3 6.13401 3 10C3 13.866 6.13401 17 10 17Z" fill="#f3f4f5"/></g><g transform="translate(328.5,292) scale(1.825) rotate(0)"><path d="M5 0H10L5 5L0 10V5L5 0Z" fill="#f5f5d9"/><path d="M20 15V20H15L20 15Z" fill="#f5f5d9"/><path d="M20 5V10L15 15L10 20H5L20 5Z" fill="#f5f5d9"/><path d="M15 0H20L5 15.0002L0 20.0002V15.0002L15 0Z" fill="#f5f5d9"/></g><g transform="translate(292,328.5) scale(1.825) rotate(0)"><path d="M5 0H10L5 5L0 10V5L5 0Z" fill="#f5f5d7"/><path d="M20 15V20H15L20 15Z" fill="#f5f5d7"/><path d="M20 5V10L15 15L10 20H5L20 5Z" fill="#f5f5d7"/><path d="M15 0H20L5 15.0002L0 20.0002V15.0002L15 0Z" fill="#f5f5d7"/></g><g transform="translate(328.5,328.5) scale(1.825) rotate(0)"><path d="M5 0H10L5 5L0 10V5L5 0Z" fill="#f6f1d3"/><path d="M20 15V20H15L20 15Z" fill="#f6f1d3"/><path d="M20 5V10L15 15L10 20H5L20 5Z" fill="#f6f1d3"/><path d="M15 0H20L5 15.0002L0 20.0002V15.0002L15 0Z" fill="#f6f1d3"/></g><g transform="translate(365,292) scale(3.65) rotate(0)"><path d="M5 0H10L5 5L0 10V5L5 0Z" fill="#f7f1ca"/><path d="M20 15V20H15L20 15Z" fill="#f7f1ca"/><path d="M20 5V10L15 15L10 20H5L20 5Z" fill="#f7f1ca"/><path d="M15 0H20L5 15.0002L0 20.0002V15.0002L15 0Z" fill="#f7f1ca"/></g><path d="M 511 365 A 73 73 0 0 1  584 292 L 511 365 A 73 73 0 0 0 584 292" fill="#f3f4f5"/><g transform="translate(584,292) scale(3.65) rotate(0)"><path d="M5 0H10L5 5L0 10V5L5 0Z" fill="#f4f4e9"/><path d="M20 15V20H15L20 15Z" fill="#f4f4e9"/><path d="M20 5V10L15 15L10 20H5L20 5Z" fill="#f4f4e9"/><path d="M15 0H20L5 15.0002L0 20.0002V15.0002L15 0Z" fill="#f4f4e9"/></g><g transform="translate(657,292) scale(3.65) rotate(0)"><path d="M5 0H10L5 5L0 10V5L5 0Z" fill="#f4f3ea"/><path d="M20 15V20H15L20 15Z" fill="#f4f3ea"/><path d="M20 5V10L15 15L10 20H5L20 5Z" fill="#f4f3ea"/><path d="M15 0H20L5 15.0002L0 20.0002V15.0002L15 0Z" fill="#f4f3ea"/></g><rect x="0" y="365" width="73" height="73" fill="#f3f4f6"/><g transform="translate(36.5,365) scale(1.825) rotate(0)"><path d="M5 0H10L5 5L0 10V5L5 0Z" fill="#f5f3e5"/><path d="M20 15V20H15L20 15Z" fill="#f5f3e5"/><path d="M20 5V10L15 15L10 20H5L20 5Z" fill="#f5f3e5"/><path d="M15 0H20L5 15.0002L0 20.0002V15.0002L15 0Z" fill="#f5f3e5"/></g><g transform="translate(0,401.5) scale(1.825) rotate(0)"><path d="M5 0H10L5 5L0 10V5L5 0Z" fill="#f6f2da"/><path d="M20 15V20H15L20 15Z" fill="#f6f2da"/><path d="M20 5V10L15 15L10 20H5L20 5Z" fill="#f6f2da"/><path d="M15 0H20L5 15.0002L0 20.0002V15.0002L15 0Z" fill="#f6f2da"/></g><path d="M 36.5 401.5 A 36.5 36.5 0 0 1  73 438 L 36.5 401.5 A 36.5 36.5 0 0 0 73 438" fill="#f7f1cd"/><g transform="translate(73,365) scale(3.65) rotate(0)"><path d="M5 0H10L5 5L0 10V5L5 0Z" fill="#f6f5d5"/><path d="M20 15V20H15L20 15Z" fill="#f6f5d5"/><path d="M20 5V10L15 15L10 20H5L20 5Z" fill="#f6f5d5"/><path d="M15 0H20L5 15.0002L0 20.0002V15.0002L15 0Z" fill="#f6f5d5"/></g><g transform="translate(146,365) scale(3.65) rotate(0)"><path fill-rule="evenodd" clip-rule="evenodd" d="M10 20C15.5228 20 20 15.5228 20 10C20 4.47715 15.5228 0 10 0C4.47715 0 0 4.47715 0 10C0 15.5228 4.47715 20 10 20ZM10 17C13.866 17 17 13.866 17 10C17 6.13401 13.866 3 10 3C6.13401 3 3 6.13401 3 10C3 13.866 6.13401 17 10 17Z" fill="#f3f4f5"/></g><path d="M 219 438 A 73 73 0 0 1  292 365 L 219 438 A 73 73 0 0 0 292 365" fill="#f6f2d4"/><path d="M 292 438 A 73 73 0 0 1  365 365 L 292 438 A 73 73 0 0 0 365 365" fill="#f5f3e4"/><rect x="365" y="365" width="73" height="73" fill="#f3f4f6"/><g transform="translate(365,365) scale(1.825) rotate(0)"><path d="M5 0H10L5 5L0 10V5L5 0Z" fill="#f4f4e9"/><path d="M20 15V20H15L20 15Z" fill="#f4f4e9"/><path d="M20 5V10L15 15L10 20H5L20 5Z" fill="#f4f4e9"/><path d="M15 0H20L5 15.0002L0 20.0002V15.0002L15 0Z" fill="#f4f4e9"/></g><g transform="translate(401.5,365) scale(1.825) rotate(0)"><path d="M5 0H10L5 5L0 10V5L5 0Z" fill="#f5f5dd"/><path d="M20 15V20H15L20 15Z" fill="#f5f5dd"/><path d="M20 5V10L15 15L10 20H5L20 5Z" fill="#f5f5dd"/><path d="M15 0H20L5 15.0002L0 20.0002V15.0002L15 0Z" fill="#f5f5dd"/></g><g transform="translate(401.5,401.5) scale(1.825) rotate(0)"><path fill-rule="evenodd" clip-rule="evenodd" d="M10 20C15.5228 20 20 15.5228 20 10C20 4.47715 15.5228 0 10 0C4.47715 0 0 4.47715 0 10C0 15.5228 4.47715 20 10 20ZM10 17C13.866 17 17 13.866 17 10C17 6.13401 13.866 3 10 3C6.13401 3 3 6.13401 3 10C3 13.866 6.13401 17 10 17Z" fill="#f4f4eb"/></g><rect x="438" y="365" width="73" height="73" fill="#f3f4f6"/><rect x="511" y="365" width="73" height="73" fill="#f3f4f6"/><g transform="translate(511,365) scale(1.825) rotate(0)"><path fill-rule="evenodd" clip-rule="evenodd" d="M10 20C15.5228 20 20 15.5228 20 10C20 4.47715 15.5228 0 10 0C4.47715 0 0 4.47715 0 10C0 15.5228 4.47715 20 10 20ZM10 17C13.866 17 17 13.866 17 10C17 6.13401 13.866 3 10 3C6.13401 3 3 6.13401 3 10C3 13.866 6.13401 17 10 17Z" fill="#f7f1c9"/></g><g transform="translate(547.5,365) scale(1.825) rotate(0)"><path fill-rule="evenodd" clip-rule="evenodd" d="M10 20C15.5228 20 20 15.5228 20 10C20 4.47715 15.5228 0 10 0C4.47715 0 0 4.47715 0 10C0 15.5228 4.47715 20 10 20ZM10 17C13.866 17 17 13.866 17 10C17 6.13401 13.866 3 10 3C6.13401 3 3 6.13401 3 10C3 13.866 6.13401 17 10 17Z" fill="#f4f4e4"/></g><g transform="translate(547.5,401.5) scale(1.825) rotate(0)"><path fill-rule="evenodd" clip-rule="evenodd" d="M10 20C15.5228 20 20 15.5228 20 10C20 4.47715 15.5228 0 10 0C4.47715 0 0 4.47715 0 10C0 15.5228 4.47715 20 10 20ZM10 17C13.866 17 17 13.866 17 10C17 6.13401 13.866 3 10 3C6.13401 3 3 6.13401 3 10C3 13.866 6.13401 17 10 17Z" fill="#f7f0c5"/></g><g transform="translate(584,365) scale(3.65) rotate(0)"><path d="M5 0H10L5 5L0 10V5L5 0Z" fill="#f3f4f5"/><path d="M20 15V20H15L20 15Z" fill="#f3f4f5"/><path d="M20 5V10L15 15L10 20H5L20 5Z" fill="#f3f4f5"/><path d="M15 0H20L5 15.0002L0 20.0002V15.0002L15 0Z" fill="#f3f4f5"/></g><path d="M 146 511 A 73 73 0 0 1  219 438 L 146 511 A 73 73 0 0 0 219 438" fill="#f5f5e1"/><path d="M 219 438 A 73 73 0 0 1  292 511 L 219 438 A 73 73 0 0 0 292 511" fill="#f7f1ce"/><path d="M 292 438 A 73 73 0 0 1  365 511 L 292 438 A 73 73 0 0 0 365 511" fill="#f5f3e3"/><g transform="translate(365,438) scale(3.65) rotate(0)"><path d="M5 0H10L5 5L0 10V5L5 0Z" fill="#f8f0c3"/><path d="M20 15V20H15L20 15Z" fill="#f8f0c3"/><path d="M20 5V10L15 15L10 20H5L20 5Z" fill="#f8f0c3"/><path d="M15 0H20L5 15.0002L0 20.0002V15.0002L15 0Z" fill="#f8f0c3"/></g><g transform="translate(438,438) scale(3.65) rotate(0)"><path fill-rule="evenodd" clip-rule="evenodd" d="M10 20C15.5228 20 20 15.5228 20 10C20 4.47715 15.5228 0 10 0C4.47715 0 0 4.47715 0 10C0 15.5228 4.47715 20 10 20ZM10 17C13.866 17 17 13.866 17 10C17 6.13401 13.866 3 10 3C6.13401 3 3 6.13401 3 10C3 13.866 6.13401 17 10 17Z" fill="#f7f1c6"/></g><rect x="584" y="438" width="73" height="73" fill="#f3f4f6"/><g transform="translate(584,438) scale(1.825) rotate(0)"><path fill-rule="evenodd" clip-rule="evenodd" d="M10 20C15.5228 20 20 15.5228 20 10C20 4.47715 15.5228 0 10 0C4.47715 0 0 4.47715 0 10C0 15.5228 4.47715 20 10 20ZM10 17C13.866 17 17 13.866 17 10C17 6.13401 13.866 3 10 3C6.13401 3 3 6.13401 3 10C3 13.866 6.13401 17 10 17Z" fill="#f5f5e2"/></g><path d="M 620.5 438 A 36.5 36.5 0 0 1  657 474.5 L 620.5 438 A 36.5 36.5 0 0 0 657 474.5" fill="#f7f1c7"/><path d="M 657 511 A 73 73 0 0 1  730 438 L 657 511 A 73 73 0 0 0 730 438" fill="#f4f3e7"/></g></svg>