<?xml version="1.0" standalone="no"?><svg xmlns:xlink="http://www.w3.org/1999/xlink" xmlns="http://www.w3.org/2000/svg" viewBox="0 0 1000 636.3636363636364" preserveAspectRatio="xMaxYMax slice"><g transform="scale(1.2453300124533002)"><rect x="0" y="0" width="803" height="511" fill="#f3f4f6"/><path d="M 608.19 121.8 A 24.61 24.61 0 0 1  632.8000000000001 97.19 L 608.19 121.8 A 24.61 24.61 0 0 0 632.8000000000001 97.19" fill="#f6f5d4"/><rect x="19.188571428571432" y="165.18857142857144" width="34.622857142857136" height="34.622857142857136" fill="#f3f4f6"/><g transform="translate(19.19,182.5) scale(0.8654999999999999) rotate(0)"><path d="M5 0H10L5 5L0 10V5L5 0Z" fill="#f1efde"/><path d="M20 15V20H15L20 15Z" fill="#f1efde"/><path d="M20 5V10L15 15L10 20H5L20 5Z" fill="#f1efde"/><path d="M15 0H20L5 15.0002L0 20.0002V15.0002L15 0Z" fill="#f1efde"/></g><g transform="translate(92.19,165.19) scale(1.7309999999999999) rotate(0)"><path fill-rule="evenodd" clip-rule="evenodd" d="M10 20C15.5228 20 20 15.5228 20 10C20 4.47715 15.5228 0 10 0C4.47715 0 0 4.47715 0 10C0 15.5228 4.47715 20 10 20ZM10 17C13.866 17 17 13.866 17 10C17 6.13401 13.866 3 10 3C6.13401 3 3 6.13401 3 10C3 13.866 6.13401 17 10 17Z" fill="#f5f5d8"/></g><g transform="translate(165.19,165.19) scale(1.7309999999999999) rotate(0)"><path d="M5 0H10L5 5L0 10V5L5 0Z" fill="#f3f4f5"/><path d="M20 15V20H15L20 15Z" fill="#f3f4f5"/><path d="M20 5V10L15 15L10 20H5L20 5Z" fill="#f3f4f5"/><path d="M15 0H20L5 15.0002L0 20.0002V15.0002L15 0Z" fill="#f3f4f5"/></g><path d="M 311.19 165.19 A 34.62 34.62 0 0 1  345.81 199.81 L 311.19 165.19 A 34.62 34.62 0 0 0 345.81 199.81" fill="#f1eedb"/><path d="M 530.19 199.81 A 34.62 34.62 0 0 1  564.8100000000001 165.19 L 530.19 199.81 A 34.62 34.62 0 0 0 564.8100000000001 165.19" fill="#ece09c"/><g transform="translate(603.19,165.19) scale(1.7309999999999999) rotate(0)"><path d="M5 0H10L5 5L0 10V5L5 0Z" fill="#ece09b"/><path d="M20 15V20H15L20 15Z" fill="#ece09b"/><path d="M20 5V10L15 15L10 20H5L20 5Z" fill="#ece09b"/><path d="M15 0H20L5 15.0002L0 20.0002V15.0002L15 0Z" fill="#ece09b"/></g><rect x="676.1885714285714" y="165.18857142857144" width="34.622857142857136" height="34.622857142857136" fill="#f3f4f6"/><g transform="translate(749.19,165.19) scale(1.7309999999999999) rotate(0)"><path fill-rule="evenodd" clip-rule="evenodd" d="M10 20C15.5228 20 20 15.5228 20 10C20 4.47715 15.5228 0 10 0C4.47715 0 0 4.47715 0 10C0 15.5228 4.47715 20 10 20ZM10 17C13.866 17 17 13.866 17 10C17 6.13401 13.866 3 10 3C6.13401 3 3 6.13401 3 10C3 13.866 6.13401 17 10 17Z" fill="#e7d35d"/></g><rect x="87.18285714285715" y="233.18285714285713" width="44.63428571428571" height="44.63428571428571" fill="#f3f4f6"/><g transform="translate(87.18,233.18) scale(1.116) rotate(0)"><path d="M5 0H10L5 5L0 10V5L5 0Z" fill="#f5f5dd"/><path d="M20 15V20H15L20 15Z" fill="#f5f5dd"/><path d="M20 5V10L15 15L10 20H5L20 5Z" fill="#f5f5dd"/><path d="M15 0H20L5 15.0002L0 20.0002V15.0002L15 0Z" fill="#f5f5dd"/></g><g transform="translate(109.5,233.18) scale(1.116) rotate(0)"><path d="M5 0H10L5 5L0 10V5L5 0Z" fill="#f6f5d1"/><path d="M20 15V20H15L20 15Z" fill="#f6f5d1"/><path d="M20 5V10L15 15L10 20H5L20 5Z" fill="#f6f5d1"/><path d="M15 0H20L5 15.0002L0 20.0002V15.0002L15 0Z" fill="#f6f5d1"/></g><g transform="translate(109.5,255.5) scale(1.116) rotate(0)"><path fill-rule="evenodd" clip-rule="evenodd" d="M10 20C15.5228 20 20 15.5228 20 10C20 4.47715 15.5228 0 10 0C4.47715 0 0 4.47715 0 10C0 15.5228 4.47715 20 10 20ZM10 17C13.866 17 17 13.866 17 10C17 6.13401 13.866 3 10 3C6.13401 3 3 6.13401 3 10C3 13.866 6.13401 17 10 17Z" fill="#f4f4e3"/></g><path d="M 160.18 277.81 A 44.63 44.63 0 0 1  204.81 233.18 L 160.18 277.81 A 44.63 44.63 0 0 0 204.81 233.18" fill="#f0eccf"/><path d="M 306.18 233.18 A 44.63 44.63 0 0 1  350.81 277.81 L 306.18 233.18 A 44.63 44.63 0 0 0 350.81 277.81" fill="#f1eeda"/><g transform="translate(379.18,233.18) scale(2.2315) rotate(0)"><path d="M5 0H10L5 5L0 10V5L5 0Z" fill="#f5f5e2"/><path d="M20 15V20H15L20 15Z" fill="#f5f5e2"/><path d="M20 5V10L15 15L10 20H5L20 5Z" fill="#f5f5e2"/><path d="M15 0H20L5 15.0002L0 20.0002V15.0002L15 0Z" fill="#f5f5e2"/></g><rect x="452.18285714285713" y="233.18285714285713" width="44.63428571428571" height="44.63428571428571" fill="#f3f4f6"/><g transform="translate(452.18,233.18) scale(1.116) rotate(0)"><path fill-rule="evenodd" clip-rule="evenodd" d="M10 20C15.5228 20 20 15.5228 20 10C20 4.47715 15.5228 0 10 0C4.47715 0 0 4.47715 0 10C0 15.5228 4.47715 20 10 20ZM10 17C13.866 17 17 13.866 17 10C17 6.13401 13.866 3 10 3C6.13401 3 3 6.13401 3 10C3 13.866 6.13401 17 10 17Z" fill="#f5f5e1"/></g><g transform="translate(452.18,255.5) scale(1.116) rotate(0)"><path d="M5 0H10L5 5L0 10V5L5 0Z" fill="#ede2a3"/><path d="M20 15V20H15L20 15Z" fill="#ede2a3"/><path d="M20 5V10L15 15L10 20H5L20 5Z" fill="#ede2a3"/><path d="M15 0H20L5 15.0002L0 20.0002V15.0002L15 0Z" fill="#ede2a3"/></g><path d="M 474.5 255.5 A 22.32 22.32 0 0 1  496.82 277.82 L 474.5 255.5 A 22.32 22.32 0 0 0 496.82 277.82" fill="#f4f4ee"/><g transform="translate(598.18,233.18) scale(2.2315) rotate(0)"><path fill-rule="evenodd" clip-rule="evenodd" d="M10 20C15.5228 20 20 15.5228 20 10C20 4.47715 15.5228 0 10 0C4.47715 0 0 4.47715 0 10C0 15.5228 4.47715 20 10 20ZM10 17C13.866 17 17 13.866 17 10C17 6.13401 13.866 3 10 3C6.13401 3 3 6.13401 3 10C3 13.866 6.13401 17 10 17Z" fill="#ece09a"/></g><rect x="671.1828571428572" y="233.18285714285713" width="44.63428571428571" height="44.63428571428571" fill="#f3f4f6"/><g transform="translate(671.18,233.18) scale(1.116) rotate(0)"><path d="M5 0H10L5 5L0 10V5L5 0Z" fill="#f3f4f2"/><path d="M20 15V20H15L20 15Z" fill="#f3f4f2"/><path d="M20 5V10L15 15L10 20H5L20 5Z" fill="#f3f4f2"/><path d="M15 0H20L5 15.0002L0 20.0002V15.0002L15 0Z" fill="#f3f4f2"/></g><path d="M 671.18 255.5 A 22.32 22.32 0 0 1  693.5 277.82 L 671.18 255.5 A 22.32 22.32 0 0 0 693.5 277.82" fill="#f6f5d4"/><g transform="translate(82.18,301.18) scale(2.7325) rotate(0)"><path d="M5 0H10L5 5L0 10V5L5 0Z" fill="#e3c82b"/><path d="M20 15V20H15L20 15Z" fill="#e3c82b"/><path d="M20 5V10L15 15L10 20H5L20 5Z" fill="#e3c82b"/><path d="M15 0H20L5 15.0002L0 20.0002V15.0002L15 0Z" fill="#e3c82b"/></g><g transform="translate(374.18,301.18) scale(2.7325) rotate(0)"><path fill-rule="evenodd" clip-rule="evenodd" d="M10 20C15.5228 20 20 15.5228 20 10C20 4.47715 15.5228 0 10 0C4.47715 0 0 4.47715 0 10C0 15.5228 4.47715 20 10 20ZM10 17C13.866 17 17 13.866 17 10C17 6.13401 13.866 3 10 3C6.13401 3 3 6.13401 3 10C3 13.866 6.13401 17 10 17Z" fill="#f5f5dc"/></g><rect x="447.1771428571429" y="301.1771428571429" width="54.64571428571428" height="54.64571428571428" fill="#f3f4f6"/><g transform="translate(474.5,328.5) scale(1.366) rotate(0)"><path d="M5 0H10L5 5L0 10V5L5 0Z" fill="#e4c82d"/><path d="M20 15V20H15L20 15Z" fill="#e4c82d"/><path d="M20 5V10L15 15L10 20H5L20 5Z" fill="#e4c82d"/><path d="M15 0H20L5 15.0002L0 20.0002V15.0002L15 0Z" fill="#e4c82d"/></g><rect x="666.1771428571428" y="301.1771428571429" width="54.64571428571428" height="54.64571428571428" fill="#f3f4f6"/><g transform="translate(666.18,301.18) scale(1.366) rotate(0)"><path d="M5 0H10L5 5L0 10V5L5 0Z" fill="#e3c51f"/><path d="M20 15V20H15L20 15Z" fill="#e3c51f"/><path d="M20 5V10L15 15L10 20H5L20 5Z" fill="#e3c51f"/><path d="M15 0H20L5 15.0002L0 20.0002V15.0002L15 0Z" fill="#e3c51f"/></g><g transform="translate(693.5,301.18) scale(1.366) rotate(0)"><path d="M5 0H10L5 5L0 10V5L5 0Z" fill="#f4f4ed"/><path d="M20 15V20H15L20 15Z" fill="#f4f4ed"/><path d="M20 5V10L15 15L10 20H5L20 5Z" fill="#f4f4ed"/><path d="M15 0H20L5 15.0002L0 20.0002V15.0002L15 0Z" fill="#f4f4ed"/></g><g transform="translate(666.18,328.5) scale(1.366) rotate(0)"><path fill-rule="evenodd" clip-rule="evenodd" d="M10 20C15.5228 20 20 15.5228 20 10C20 4.47715 15.5228 0 10 0C4.47715 0 0 4.47715 0 10C0 15.5228 4.47715 20 10 20ZM10 17C13.866 17 17 13.866 17 10C17 6.13401 13.866 3 10 3C6.13401 3 3 6.13401 3 10C3 13.866 6.13401 17 10 17Z" fill="#e9d873"/></g><rect x="739.1771428571428" y="301.1771428571429" width="54.64571428571428" height="54.64571428571428" fill="#f3f4f6"/><g transform="translate(739.18,301.18) scale(1.366) rotate(0)"><path d="M5 0H10L5 5L0 10V5L5 0Z" fill="#f3f4f2"/><path d="M20 15V20H15L20 15Z" fill="#f3f4f2"/><path d="M20 5V10L15 15L10 20H5L20 5Z" fill="#f3f4f2"/><path d="M15 0H20L5 15.0002L0 20.0002V15.0002L15 0Z" fill="#f3f4f2"/></g><path d="M 766.5 301.18 A 27.32 27.32 0 0 1  793.82 328.5 L 766.5 301.18 A 27.32 27.32 0 0 0 793.82 328.5" fill="#eada7d"/><path d="M 739.18 355.82 A 27.32 27.32 0 0 1  766.5 328.5 L 739.18 355.82 A 27.32 27.32 0 0 0 766.5 328.5" fill="#f5f5de"/><g transform="translate(766.5,328.5) scale(1.366) rotate(0)"><path d="M5 0H10L5 5L0 10V5L5 0Z" fill="#eadb81"/><path d="M20 15V20H15L20 15Z" fill="#eadb81"/><path d="M20 5V10L15 15L10 20H5L20 5Z" fill="#eadb81"/><path d="M15 0H20L5 15.0002L0 20.0002V15.0002L15 0Z" fill="#eadb81"/></g><path d="M 4.17 433.83000000000004 A 64.66 64.66 0 0 1  68.83 369.17 L 4.17 433.83000000000004 A 64.66 64.66 0 0 0 68.83 369.17" fill="#eadc85"/><g transform="translate(77.17,369.17) scale(3.2329999999999997) rotate(0)"><path fill-rule="evenodd" clip-rule="evenodd" d="M10 20C15.5228 20 20 15.5228 20 10C20 4.47715 15.5228 0 10 0C4.47715 0 0 4.47715 0 10C0 15.5228 4.47715 20 10 20ZM10 17C13.866 17 17 13.866 17 10C17 6.13401 13.866 3 10 3C6.13401 3 3 6.13401 3 10C3 13.866 6.13401 17 10 17Z" fill="#ebdc87"/></g><g transform="translate(150.17,369.17) scale(3.2329999999999997) rotate(0)"><path d="M5 0H10L5 5L0 10V5L5 0Z" fill="#f5f5e3"/><path d="M20 15V20H15L20 15Z" fill="#f5f5e3"/><path d="M20 5V10L15 15L10 20H5L20 5Z" fill="#f5f5e3"/><path d="M15 0H20L5 15.0002L0 20.0002V15.0002L15 0Z" fill="#f5f5e3"/></g><g transform="translate(223.17,369.17) scale(3.2329999999999997) rotate(0)"><path d="M5 0H10L5 5L0 10V5L5 0Z" fill="#ebdc87"/><path d="M20 15V20H15L20 15Z" fill="#ebdc87"/><path d="M20 5V10L15 15L10 20H5L20 5Z" fill="#ebdc87"/><path d="M15 0H20L5 15.0002L0 20.0002V15.0002L15 0Z" fill="#ebdc87"/></g><g transform="translate(369.17,369.17) scale(3.2329999999999997) rotate(0)"><path fill-rule="evenodd" clip-rule="evenodd" d="M10 20C15.5228 20 20 15.5228 20 10C20 4.47715 15.5228 0 10 0C4.47715 0 0 4.47715 0 10C0 15.5228 4.47715 20 10 20ZM10 17C13.866 17 17 13.866 17 10C17 6.13401 13.866 3 10 3C6.13401 3 3 6.13401 3 10C3 13.866 6.13401 17 10 17Z" fill="#f5f5de"/></g><g transform="translate(442.17,369.17) scale(3.2329999999999997) rotate(0)"><path d="M5 0H10L5 5L0 10V5L5 0Z" fill="#ebdc87"/><path d="M20 15V20H15L20 15Z" fill="#ebdc87"/><path d="M20 5V10L15 15L10 20H5L20 5Z" fill="#ebdc87"/><path d="M15 0H20L5 15.0002L0 20.0002V15.0002L15 0Z" fill="#ebdc87"/></g><g transform="translate(515.17,369.17) scale(3.2329999999999997) rotate(0)"><path fill-rule="evenodd" clip-rule="evenodd" d="M10 20C15.5228 20 20 15.5228 20 10C20 4.47715 15.5228 0 10 0C4.47715 0 0 4.47715 0 10C0 15.5228 4.47715 20 10 20ZM10 17C13.866 17 17 13.866 17 10C17 6.13401 13.866 3 10 3C6.13401 3 3 6.13401 3 10C3 13.866 6.13401 17 10 17Z" fill="#f4f4ec"/></g><path d="M 588.17 433.83000000000004 A 64.66 64.66 0 0 1  652.8299999999999 369.17 L 588.17 433.83000000000004 A 64.66 64.66 0 0 0 652.8299999999999 369.17" fill="#e2c419"/><path d="M 661.17 433.83000000000004 A 64.66 64.66 0 0 1  725.8299999999999 369.17 L 661.17 433.83000000000004 A 64.66 64.66 0 0 0 725.8299999999999 369.17" fill="#f5f5e1"/><g transform="translate(734.17,369.17) scale(3.2329999999999997) rotate(0)"><path d="M5 0H10L5 5L0 10V5L5 0Z" fill="#f3f4f0"/><path d="M20 15V20H15L20 15Z" fill="#f3f4f0"/><path d="M20 5V10L15 15L10 20H5L20 5Z" fill="#f3f4f0"/><path d="M15 0H20L5 15.0002L0 20.0002V15.0002L15 0Z" fill="#f3f4f0"/></g><g transform="translate(0,438) scale(3.65) rotate(0)"><path fill-rule="evenodd" clip-rule="evenodd" d="M10 20C15.5228 20 20 15.5228 20 10C20 4.47715 15.5228 0 10 0C4.47715 0 0 4.47715 0 10C0 15.5228 4.47715 20 10 20ZM10 17C13.866 17 17 13.866 17 10C17 6.13401 13.866 3 10 3C6.13401 3 3 6.13401 3 10C3 13.866 6.13401 17 10 17Z" fill="#f5f5e1"/></g><rect x="73" y="438" width="73" height="73" fill="#f3f4f6"/><path d="M 73 474.5 A 36.5 36.5 0 0 1  109.5 438 L 73 474.5 A 36.5 36.5 0 0 0 109.5 438" fill="#f5f5da"/><g transform="translate(109.5,438) scale(1.825) rotate(0)"><path fill-rule="evenodd" clip-rule="evenodd" d="M10 20C15.5228 20 20 15.5228 20 10C20 4.47715 15.5228 0 10 0C4.47715 0 0 4.47715 0 10C0 15.5228 4.47715 20 10 20ZM10 17C13.866 17 17 13.866 17 10C17 6.13401 13.866 3 10 3C6.13401 3 3 6.13401 3 10C3 13.866 6.13401 17 10 17Z" fill="#f5f5dd"/></g><path d="M 73 474.5 A 36.5 36.5 0 0 1  109.5 511 L 73 474.5 A 36.5 36.5 0 0 0 109.5 511" fill="#ebdd8e"/><g transform="translate(109.5,474.5) scale(1.825) rotate(0)"><path fill-rule="evenodd" clip-rule="evenodd" d="M10 20C15.5228 20 20 15.5228 20 10C20 4.47715 15.5228 0 10 0C4.47715 0 0 4.47715 0 10C0 15.5228 4.47715 20 10 20ZM10 17C13.866 17 17 13.866 17 10C17 6.13401 13.866 3 10 3C6.13401 3 3 6.13401 3 10C3 13.866 6.13401 17 10 17Z" fill="#f1efdd"/></g><path d="M 146 438 A 73 73 0 0 1  219 511 L 146 438 A 73 73 0 0 0 219 511" fill="#ebdd8d"/><g transform="translate(219,438) scale(3.65) rotate(0)"><path fill-rule="evenodd" clip-rule="evenodd" d="M10 20C15.5228 20 20 15.5228 20 10C20 4.47715 15.5228 0 10 0C4.47715 0 0 4.47715 0 10C0 15.5228 4.47715 20 10 20ZM10 17C13.866 17 17 13.866 17 10C17 6.13401 13.866 3 10 3C6.13401 3 3 6.13401 3 10C3 13.866 6.13401 17 10 17Z" fill="#f4f4e4"/></g><rect x="292" y="438" width="73" height="73" fill="#f3f4f6"/><g transform="translate(292,438) scale(1.825) rotate(0)"><path d="M5 0H10L5 5L0 10V5L5 0Z" fill="#efe9c3"/><path d="M20 15V20H15L20 15Z" fill="#efe9c3"/><path d="M20 5V10L15 15L10 20H5L20 5Z" fill="#efe9c3"/><path d="M15 0H20L5 15.0002L0 20.0002V15.0002L15 0Z" fill="#efe9c3"/></g><g transform="translate(328.5,438) scale(1.825) rotate(0)"><path d="M5 0H10L5 5L0 10V5L5 0Z" fill="#f5f5df"/><path d="M20 15V20H15L20 15Z" fill="#f5f5df"/><path d="M20 5V10L15 15L10 20H5L20 5Z" fill="#f5f5df"/><path d="M15 0H20L5 15.0002L0 20.0002V15.0002L15 0Z" fill="#f5f5df"/></g><g transform="translate(292,474.5) scale(1.825) rotate(0)"><path fill-rule="evenodd" clip-rule="evenodd" d="M10 20C15.5228 20 20 15.5228 20 10C20 4.47715 15.5228 0 10 0C4.47715 0 0 4.47715 0 10C0 15.5228 4.47715 20 10 20ZM10 17C13.866 17 17 13.866 17 10C17 6.13401 13.866 3 10 3C6.13401 3 3 6.13401 3 10C3 13.866 6.13401 17 10 17Z" fill="#f2f2eb"/></g><g transform="translate(328.5,474.5) scale(1.825) rotate(0)"><path fill-rule="evenodd" clip-rule="evenodd" d="M10 20C15.5228 20 20 15.5228 20 10C20 4.47715 15.5228 0 10 0C4.47715 0 0 4.47715 0 10C0 15.5228 4.47715 20 10 20ZM10 17C13.866 17 17 13.866 17 10C17 6.13401 13.866 3 10 3C6.13401 3 3 6.13401 3 10C3 13.866 6.13401 17 10 17Z" fill="#f4f4e7"/></g><path d="M 365 511 A 73 73 0 0 1  438 438 L 365 511 A 73 73 0 0 0 438 438" fill="#f4f4e6"/><rect x="438" y="438" width="73" height="73" fill="#f3f4f6"/><g transform="translate(438,438) scale(1.825) rotate(0)"><path fill-rule="evenodd" clip-rule="evenodd" d="M10 20C15.5228 20 20 15.5228 20 10C20 4.47715 15.5228 0 10 0C4.47715 0 0 4.47715 0 10C0 15.5228 4.47715 20 10 20ZM10 17C13.866 17 17 13.866 17 10C17 6.13401 13.866 3 10 3C6.13401 3 3 6.13401 3 10C3 13.866 6.13401 17 10 17Z" fill="#f6f5d5"/></g><g transform="translate(474.5,438) scale(1.825) rotate(0)"><path d="M5 0H10L5 5L0 10V5L5 0Z" fill="#e8d460"/><path d="M20 15V20H15L20 15Z" fill="#e8d460"/><path d="M20 5V10L15 15L10 20H5L20 5Z" fill="#e8d460"/><path d="M15 0H20L5 15.0002L0 20.0002V15.0002L15 0Z" fill="#e8d460"/></g><g transform="translate(438,474.5) scale(1.825) rotate(0)"><path d="M5 0H10L5 5L0 10V5L5 0Z" fill="#f3f4f1"/><path d="M20 15V20H15L20 15Z" fill="#f3f4f1"/><path d="M20 5V10L15 15L10 20H5L20 5Z" fill="#f3f4f1"/><path d="M15 0H20L5 15.0002L0 20.0002V15.0002L15 0Z" fill="#f3f4f1"/></g><path d="M 474.5 511 A 36.5 36.5 0 0 1  511 474.5 L 474.5 511 A 36.5 36.5 0 0 0 511 474.5" fill="#efe9c2"/><g transform="translate(511,438) scale(3.65) rotate(0)"><path d="M5 0H10L5 5L0 10V5L5 0Z" fill="#f3f4f6"/><path d="M20 15V20H15L20 15Z" fill="#f3f4f6"/><path d="M20 5V10L15 15L10 20H5L20 5Z" fill="#f3f4f6"/><path d="M15 0H20L5 15.0002L0 20.0002V15.0002L15 0Z" fill="#f3f4f6"/></g><g transform="translate(584,438) scale(3.65) rotate(0)"><path fill-rule="evenodd" clip-rule="evenodd" d="M10 20C15.5228 20 20 15.5228 20 10C20 4.47715 15.5228 0 10 0C4.47715 0 0 4.47715 0 10C0 15.5228 4.47715 20 10 20ZM10 17C13.866 17 17 13.866 17 10C17 6.13401 13.866 3 10 3C6.13401 3 3 6.13401 3 10C3 13.866 6.13401 17 10 17Z" fill="#eadb82"/></g><rect x="657" y="438" width="73" height="73" fill="#f3f4f6"/><g transform="translate(657,438) scale(1.825) rotate(0)"><path d="M5 0H10L5 5L0 10V5L5 0Z" fill="#f5f5db"/><path d="M20 15V20H15L20 15Z" fill="#f5f5db"/><path d="M20 5V10L15 15L10 20H5L20 5Z" fill="#f5f5db"/><path d="M15 0H20L5 15.0002L0 20.0002V15.0002L15 0Z" fill="#f5f5db"/></g><g transform="translate(693.5,438) scale(1.825) rotate(0)"><path fill-rule="evenodd" clip-rule="evenodd" d="M10 20C15.5228 20 20 15.5228 20 10C20 4.47715 15.5228 0 10 0C4.47715 0 0 4.47715 0 10C0 15.5228 4.47715 20 10 20ZM10 17C13.866 17 17 13.866 17 10C17 6.13401 13.866 3 10 3C6.13401 3 3 6.13401 3 10C3 13.866 6.13401 17 10 17Z" fill="#f5f5de"/></g><g transform="translate(657,474.5) scale(1.825) rotate(0)"><path d="M5 0H10L5 5L0 10V5L5 0Z" fill="#f6f5d1"/><path d="M20 15V20H15L20 15Z" fill="#f6f5d1"/><path d="M20 5V10L15 15L10 20H5L20 5Z" fill="#f6f5d1"/><path d="M15 0H20L5 15.0002L0 20.0002V15.0002L15 0Z" fill="#f6f5d1"/></g><path d="M 693.5 511 A 36.5 36.5 0 0 1  730 474.5 L 693.5 511 A 36.5 36.5 0 0 0 730 474.5" fill="#e8d463"/><g transform="translate(730,438) scale(3.65) rotate(0)"><path d="M5 0H10L5 5L0 10V5L5 0Z" fill="#f5f5e0"/><path d="M20 15V20H15L20 15Z" fill="#f5f5e0"/><path d="M20 5V10L15 15L10 20H5L20 5Z" fill="#f5f5e0"/><path d="M15 0H20L5 15.0002L0 20.0002V15.0002L15 0Z" fill="#f5f5e0"/></g></g></svg>